<?xml version="1.0" standalone="no"?><svg xmlns="http://www.w3.org/2000/svg" viewBox="0 0 1440 320"><path fill="#0099ff" fill-opacity="1" d="M0,192L48,181.3C96,171,192,149,288,122.7C384,96,480,64,576,90.7C672,117,768,203,864,213.3C960,224,1056,160,1152,112C1248,64,1344,32,1392,16L1440,0L1440,320L1392,320C1344,320,1248,320,1152,320C1056,320,960,320,864,320C768,320,672,320,576,320C480,320,384,320,288,320C192,320,96,320,48,320L0,320Z" data-darkreader-inline-fill="" style="--darkreader-inline-fill: #0080d6;"></path></svg>